# xmcd
#
# Track frame offsets:
#	150
#	12734
#	31819
#	48955
#	62708
#	81402
#
# Disc length: 1324 seconds
#
# Revision: 1
# Processed by: cddbd v1.5.1PL0 Copyright (c) Steve Scherf et al.
# Submitted via: EasyCDDAExtractor 6.2.0.3
#
DISCID=48052a06
DTITLE=Sir Oliver Mally and Raphael Wressnig - someone stole my christmastree
DYEAR=2004
DGENRE=Blues
TTITLE0=someone stole my christmastree
TTITLE1=santa claus won't show up tonight
TTITLE2=i shall not be moved
TTITLE3=crazy 'bout them cookies
TTITLE4=for you
TTITLE5=i'm doin' fine
EXTD=
EXTT0=
EXTT1=
EXTT2=
EXTT3=
EXTT4=
EXTT5=
PLAYORDER=
